<svg xmlns="http://www.w3.org/2000/svg" height="20px" viewBox="0 -960 960 960" width="20px" fill="#000000"><path d="M220-480h116q10 0 18.5 5t13.5 14l40 74 112-206q11-19 32-19t31 19l62 113h95q-17-93-89.5-154.5T480-696q-98 0-170.5 61.5T220-480Zm439 243q75-69 84-171H624q-10 0-18-5t-13-14l-41-74-112 206q-11 19-31.5 19T377-295l-62-113h-98q9 102 84 171t179 69q104 0 179-69ZM349-122.5q-61-26.5-106.5-72t-72-106.5Q144-362 144-432h72q0 110 77 187t187 77q110 0 187-77t77-187h72q0 70-26.5 131t-72 106.5Q672-149 611-122.5T480-96q-70 0-131-26.5ZM144-432q0-70 26.5-131t72-106.5Q288-715 349-741.5T480-768q58 0 111.5 19.5T691-694l52-51 50 50-51 52q35 45 54.5 99T816-432h-72q0-110-77-187t-187-77q-110 0-187 77t-77 187h-72Zm216-384v-72h240v72H360Zm-67 571q-77-77-77-187t77-187q77-77 187-77t187 77q77 77 77 187t-77 187q-77 77-187 77t-187-77Zm187-187Z"/></svg>