<svg xmlns="http://www.w3.org/2000/svg" height="20px" viewBox="0 -960 960 960" width="20px" fill="#000000"><path d="M452-101q-12-5-23-16L117-429q-11-11-16-23t-5-28q0-16 5-28t15.7-22.7L429-843q11-11 23-16t28-5q16 0 28 5t23 16l312 312q11 11 16 23t5 28q0 16-5 28t-16 23L530.7-116.7Q520-106 508-101t-28 5q-16 0-28-5Zm28-67 312-312-312-312-312 312 312 312Zm-36-288h72v-216h-72v216Zm61.5 109.71q10.5-10.29 10.5-25.5t-10.29-25.71q-10.29-10.5-25.5-10.5t-25.71 10.29q-10.5 10.29-10.5 25.5t10.29 25.71q10.29 10.5 25.5 10.5t25.71-10.29ZM480-480Z"/></svg>